<?xml version="1.0" standalone="no"?>
<!DOCTYPE svg PUBLIC "-//W3C//DTD SVG 1.1//EN" "http://www.w3.org/Graphics/SVG/1.1/DTD/svg11.dtd" >
<svg xmlns="http://www.w3.org/2000/svg">
<metadata></metadata>
<defs>
<font id="guanineregular" horiz-adv-x="1230" >
<font-face units-per-em="2048" ascent="1548" descent="-500" />
<missing-glyph horiz-adv-x="622" />
<glyph horiz-adv-x="0" />
<glyph horiz-adv-x="682" />
<glyph horiz-adv-x="622" />
<glyph unicode=" "  horiz-adv-x="622" />
<glyph unicode="&#x09;" horiz-adv-x="622" />
<glyph unicode="&#xa0;" horiz-adv-x="622" />
<glyph unicode="!" horiz-adv-x="512" d="M309 424h-110q-3 208 -74 506q-47 202 -47 321q0 262 178 262q176 0 176 -247q0 -133 -49 -336q-74 -309 -74 -506zM86 328h330v-328h-330v328z" />
<glyph unicode="&#x22;" horiz-adv-x="675" d="M522 975h-69q-3 49 -40.5 200.5t-37.5 202.5q0 131 114 131q113 0 113 -123q0 -52 -40 -211t-40 -200zM221 975h-69q-3 49 -40.5 200.5t-37.5 202.5q0 131 114 131q113 0 113 -123q0 -52 -40 -211t-40 -200z" />
<glyph unicode="#" horiz-adv-x="1017" d="M412 809l-21 -133h160l20 133h-159zM516 1489l-59 -375h161l60 375h117l-58 -375h189l-47 -305h-191l-18 -133h186l-43 -303h-190l-58 -373h-116l55 373h-162l-55 -373h-117l53 373h-186l47 303h190l21 133h-191l46 305h190l51 375h125z" />
<glyph unicode="$" horiz-adv-x="1036" d="M457 2v201q-89 8 -170.5 43.5t-139 101t-57.5 146.5q0 75 39 149l195 -80q-62 -30 -62 -86q0 -73 78 -122.5t188 -49.5q92 0 146.5 36t54.5 97q0 136 -352 224q-291 72 -291 313q0 80 31 142.5t84 101t117.5 59.5t138.5 25v184h73v-189q33 0 74 -10t87 -30t89 -58.5 t68 -89.5l-113 -66q-53 84 -114.5 120t-143.5 36q-60 0 -94.5 -22.5t-34.5 -53.5q0 -42 63.5 -83.5t219.5 -88.5q159 -49 238 -149t79 -228q0 -115 -58.5 -200.5t-150 -127t-204.5 -44.5h-5v-201h-73z" />
<glyph unicode="%" horiz-adv-x="1441" d="M1249 1487l-932 -1487h-143l932 1487h143zM371 1427q-56 0 -70 -28t-14 -103v-313q0 -33 2 -50.5t10 -34.5t25.5 -23.5t46.5 -6.5q54 0 70 29.5t16 101.5v314q0 63 -16.5 88.5t-69.5 25.5zM373 1497q139 0 228 -102t89 -248t-88.5 -247t-228.5 -101q-141 0 -227.5 100.5 t-86.5 247.5t86.5 248.5t227.5 101.5zM1061 608q-55 0 -69.5 -29t-14.5 -102v-313q0 -33 2 -50.5t10 -34.5t25.5 -23.5t46.5 -6.5q54 0 70 29t16 102v314q0 63 -16.5 88.5t-69.5 25.5zM1065 676q139 0 227 -101t88 -247q0 -150 -87.5 -249t-227.5 -99q-144 0 -229.5 98 t-85.5 250q0 148 86 248t229 100z" />
<glyph unicode="&#x26;" horiz-adv-x="1472" d="M672 299l-43 -2q-13 41 -13 72q0 190 336 266q123 27 187 44t112.5 39.5t67 47t27.5 63.5l47 -6q20 -56 20 -116q0 -105 -68.5 -173.5t-185.5 -78.5q53 -83 53 -166q0 -97 -64.5 -176.5t-177.5 -124.5t-251 -45q-230 0 -371.5 48.5t-202.5 139.5t-61 234q0 148 74 258 t229 168q-98 31 -157.5 119.5t-59.5 201.5q0 202 119.5 298.5t363.5 96.5q116 0 197 -21.5t125 -61t63 -87t19 -108.5q0 -99 -67.5 -158t-153.5 -59q-66 0 -112 38t-46 93q0 48 32 78t87 30q45 0 92 -41q6 15 6 33q0 50 -44.5 83.5t-111.5 33.5q-99 0 -158 -59t-59 -164 q0 -277 348 -277v-131q-152 -18 -253 -122.5t-101 -256.5q0 -129 58 -202.5t178 -73.5q86 0 152.5 53.5t66.5 122.5t-34.5 108t-84.5 39q-62 0 -111.5 -29t-68.5 -69z" />
<glyph unicode="'" horiz-adv-x="329" d="M199 975h-70q-3 48 -40.5 198t-37.5 205q0 131 113 131q112 0 112 -123q0 -51 -38.5 -211.5t-38.5 -199.5z" />
<glyph unicode="(" horiz-adv-x="876" d="M784 1653h45v-148h-114q-244 0 -244 -340v-884q0 -297 244 -297h116l-6 -150q-187 0 -313.5 24.5t-200.5 76t-105.5 123.5t-31.5 175v986q0 90 18 156.5t60 120.5t112 87.5t174 51.5t246 18z" />
<glyph unicode=")" horiz-adv-x="876" d="M90 -164h-45v146h115q246 0 246 340v884q0 297 -246 297h-115l2 150q151 0 262.5 -16.5t186.5 -47.5t121 -80.5t65.5 -111.5t19.5 -144v-985q0 -113 -29 -190.5t-98 -133.5t-188.5 -82t-296.5 -26z" />
<glyph unicode="*" horiz-adv-x="817" d="M408 1085l104 -215l236 -32l-173 -164l43 -236l-210 113l-211 -113l43 236l-172 164l235 32z" />
<glyph unicode="+" horiz-adv-x="972" d="M412 1212h149v-376h379v-150h-379v-381h-149v381h-379v150h379v376z" />
<glyph unicode="," horiz-adv-x="444" d="M51 330h330v-271q0 -271 -188 -374l-64 63q156 102 156 252h-234v330z" />
<glyph unicode="-" horiz-adv-x="870" d="M84 686v150h700v-150h-700z" />
<glyph unicode="." horiz-adv-x="503" d="M84 328h330v-328h-330v328z" />
<glyph unicode="/" horiz-adv-x="772" d="M764 1628l-614 -1769h-144l615 1769h143z" />
<glyph unicode="0" horiz-adv-x="1484" d="M733 1360q-36 0 -63.5 -6.5t-46.5 -16.5t-31.5 -30t-20 -39t-11 -53t-4.5 -62.5t-1 -75.5v-704q0 -47 1.5 -75.5t7.5 -60.5t17.5 -49.5t31.5 -33.5t50.5 -22.5t73.5 -6.5q61 0 98.5 16.5t56.5 56t24.5 86.5t5.5 128v704q0 68 -5.5 107t-24 73.5t-57.5 49t-102 14.5z M741 1509q205 0 361.5 -100t239.5 -274t83 -394t-83 -393.5t-239.5 -273t-361.5 -99.5q-204 0 -360 99.5t-239 273t-83 393.5t83 394t239 274t360 100z" />
<glyph unicode="1" horiz-adv-x="778" d="M41 1331v156h651v-1487h-475v1331h-176z" />
<glyph unicode="2" horiz-adv-x="1267" d="M311 1153l-161 90l161 322q93 -49 166 -49q36 0 107.5 10t107.5 10q57 0 108.5 -6t109.5 -21t104 -44.5t85 -72t60 -108.5t21 -149q0 -207 -130.5 -339t-410.5 -202q-162 -40 -233.5 -90.5t-71.5 -126.5h864v-377h-1135q0 150 41 334q22 97 59.5 171.5t97.5 134.5 t123.5 104t160.5 98q252 141 252 340q0 82 -51.5 133t-137.5 51q-81 0 -153.5 -50t-143.5 -163z" />
<glyph unicode="3" horiz-adv-x="1282" d="M172 438l238 -100q-39 -56 -39 -115q0 -70 49 -112.5t123 -42.5q121 0 168 63.5t47 210.5q0 111 -26 188.5t-74.5 120t-106.5 60.5t-133 18v131q162 0 243.5 62.5t81.5 210.5q0 102 -47.5 168.5t-146.5 66.5q-136 0 -244 -215l-162 90l162 322q93 -38 152.5 -49 t142.5 -11h47q103 0 183.5 -18t147.5 -60.5t103.5 -120t36.5 -188.5q0 -117 -59.5 -206t-157.5 -121q157 -59 230 -172t73 -263q0 -219 -145.5 -322.5t-468.5 -103.5q-209 0 -343 84.5t-134 227.5q0 87 59 196z" />
<glyph unicode="4" horiz-adv-x="1306" d="M635 1071l-467 -706h467v706zM20 215v197l705 1075h385v-1122h137v-150h-137v-215h-475v215h-615z" />
<glyph unicode="5" horiz-adv-x="1353" d="M1190 1487v-377h-830v-227q118 112 355 112q255 0 395.5 -142.5t140.5 -434.5q0 -121 -28.5 -205.5t-98.5 -147t-192.5 -92.5t-304.5 -30q-139 0 -248 36.5t-172.5 108.5t-63.5 168q0 84 60 195l237 -101q-39 -56 -39 -114q0 -70 51 -113t128 -43q58 0 95.5 10t64.5 33.5 t41 70t20 110t6 163.5q0 174 -58.5 263t-189.5 89q-111 0 -199 -110l-153 75v703h983z" />
<glyph unicode="6" horiz-adv-x="1462" d="M729 868q-143 0 -143 -145v-420q0 -176 147 -176q150 0 150 176v426q0 139 -154 139zM561 922q47 49 105.5 69.5t146.5 20.5q114 0 215.5 -33t179.5 -93t124 -153.5t46 -206.5q0 -94 -21.5 -175.5t-68 -151.5t-115.5 -120t-169 -78t-224 -28q-126 0 -226 20t-172 55 t-125 90.5t-85.5 118.5t-52 147t-26.5 167.5t-7 188.5q0 216 80 386t230.5 266.5t348.5 96.5h183q79 0 209 56l161 -322l-161 -90q-132 197 -303 197q-77 0 -133.5 -27.5t-88 -75.5t-46.5 -105.5t-15 -125.5q0 -36 10 -94z" />
<glyph unicode="7" horiz-adv-x="1099" d="M76 1110v377h987v-344q-78 -49 -146 -124.5t-128.5 -186.5t-96 -270.5t-35.5 -348.5q0 -111 11 -213h-529q-4 10 -4 35v22v37q0 91 17.5 179t45 160t71.5 144t86.5 126.5t100.5 111.5t102.5 95t104.5 81t94 65.5t83 53.5h-764z" />
<glyph unicode="8" horiz-adv-x="1388" d="M694 1380q-103 0 -112 -143v-160q0 -145 112 -145q111 0 111 145v160q-9 143 -111 143zM799 242v424q0 139 -105 139q-104 0 -104 -139v-424q0 -113 104 -113q105 0 105 113zM967 18q-134 -41 -273 -41q-154 0 -277.5 41.5t-201 112.5t-118 161.5t-40.5 192.5 q0 133 77.5 247.5t223.5 164.5q-174 82 -174 279q0 55 20 106t61.5 95.5t101 77.5t143.5 53t184 22q128 -2 228 -33t159.5 -82t90 -111.5t30.5 -127.5q0 -190 -172 -279q146 -52 223.5 -165t77.5 -247q0 -164 -90.5 -283t-273.5 -184z" />
<glyph unicode="9" horiz-adv-x="1476" d="M758 635q143 0 143 143v420q0 176 -147 176q-148 0 -148 -176v-426q3 -137 152 -137zM242 502l268 -101q-51 -67 -51 -137q0 -65 50 -104t130 -39q289 0 289 385q0 49 -2 76q-87 -93 -260 -93q-108 0 -207 32.5t-177 92.5t-124.5 152t-46.5 203q0 120 33.5 218.5t103 176 t187 120t274.5 42.5q122 0 220.5 -19.5t170 -54t124.5 -88.5t86 -115.5t53.5 -142.5t28 -162.5t7.5 -181.5q0 -168 -43.5 -307.5t-128.5 -245t-222.5 -164.5t-314.5 -59q-135 0 -249.5 33t-189.5 103.5t-75 166.5q0 84 66 213z" />
<glyph unicode=":" horiz-adv-x="460" d="M84 948h330v-327h-330v327zM84 330h330v-330h-330v330z" />
<glyph unicode=";" horiz-adv-x="450" d="M51 948h330v-327h-330v327zM51 330h330v-271q0 -271 -188 -374l-64 63q156 102 156 252h-234v330z" />
<glyph unicode="&#x3c;" horiz-adv-x="972" d="M33 717v88l907 366v-176l-637 -235l637 -238v-176z" />
<glyph unicode="=" horiz-adv-x="972" d="M33 1061h907v-150h-907v150zM33 610h907v-149h-907v149z" />
<glyph unicode="&#x3e;" horiz-adv-x="972" d="M940 805v-88l-907 -371v176l637 238l-637 235v176z" />
<glyph unicode="?" horiz-adv-x="1173" d="M428 1114l-268 -100q-60 111 -60 194q0 138 132.5 226t322.5 88q563 0 563 -375q0 -94 -38 -185t-122 -172.5t-202 -123.5q-211 -76 -226 -224l-118 -2q-19 40 -19 80q0 106 111 217q207 207 207 445q0 98 -47 149t-134 51q-58 0 -106.5 -40.5t-48.5 -104.5 q0 -58 53 -123zM309 328h330v-328h-330v328z" />
<glyph unicode="@" horiz-adv-x="1691" d="M1135 901v-588q0 -100 79 -100q42 0 76.5 60.5t52 151t17.5 187.5q0 130 -40.5 234.5t-108 168.5t-149.5 98t-169 34q-260 0 -413.5 -181t-153.5 -483q0 -129 30 -237t82.5 -184.5t124 -130.5t155 -79.5t175.5 -25.5q201 0 395 123l62 -99q-269 -145 -529 -145 q-154 0 -287.5 52t-234 149t-158 246t-57.5 333q0 236 99 421t284 289.5t428 104.5q101 0 202.5 -31.5t189.5 -91.5t157 -139t109 -181.5t40 -211.5q0 -281 -118.5 -436.5t-313.5 -155.5q-131 0 -209 94q-87 -81 -184 -81q-119 0 -201 121.5t-82 314.5q10 184 79.5 285.5 t180.5 101.5q72 0 154 -49v61h236zM809 748q-85 0 -94 -177v-180q0 -180 94 -180q88 0 88 180v180q-6 177 -88 177z" />
<glyph unicode="A" horiz-adv-x="1378" d="M700 442l-178 578l-192 -578h370zM16 0l519 1487h319l510 -1487h-508l-104 295h-473l-103 -295h-160z" />
<glyph unicode="B" horiz-adv-x="1366" d="M559 1337v-415h53q150 0 150 229q0 186 -203 186zM635 774h-76v-627h76q250 0 250 304q0 323 -250 323zM84 1487h455q669 0 669 -320q0 -227 -231 -309q385 -102 385 -418q0 -223 -177.5 -331.5t-547.5 -108.5h-553v1487z" />
<glyph unicode="C" horiz-adv-x="1363" d="M1157 350l141 -63q-124 -181 -237.5 -246.5t-282.5 -65.5q-154 0 -292.5 58t-239.5 158.5t-160 243.5t-59 306q0 154 59.5 296t159 245t234.5 165t280 62h213q64 0 194 56l160 -322l-160 -90q-139 207 -397 207q-250 0 -250 -283v-704q0 -248 258 -248q238 0 379 225z " />
<glyph unicode="D" horiz-adv-x="1402" d="M84 1487h512q764 0 764 -744q0 -743 -737 -743h-539v1487zM530 1329v-1190h58q295 0 295 596q0 594 -295 594h-58z" />
<glyph unicode="E" horiz-adv-x="1118" d="M1044 0h-960v1487h950l35 -150h-510v-141h512l-49 -188l-94 36h-369v-897h485v-147z" />
<glyph unicode="F" horiz-adv-x="1089" d="M559 0h-475v1487h950l35 -150h-510v-141h512l-49 -188l-94 36h-369v-1044z" />
<glyph unicode="G" horiz-adv-x="1538" d="M999 752h474v-719l-48 -33q-125 41 -229 41q-82 0 -230.5 -24.5t-213.5 -24.5q-116 0 -226.5 39t-199.5 109.5t-157 163t-105 206t-37 231.5q0 160 57.5 303.5t154 244.5t227.5 160.5t273 59.5h209q79 0 209 56l162 -322l-162 -90q-139 207 -387 207q-250 0 -250 -283 v-692q0 -248 240 -248q218 0 239 213v402z" />
<glyph unicode="H" horiz-adv-x="1554" d="M84 0v1487h475v-328q67 70 143 70q38 0 119 -35t105 -35q45 0 69 37v291h475v-1487h-475v1079q-63 -78 -137 -78q-37 0 -113 34t-108 34q-39 0 -78 -25v-1044h-475z" />
<glyph unicode="I" horiz-adv-x="647" d="M84 0v1487h475v-1487h-475z" />
<glyph unicode="J" horiz-adv-x="1208" d="M655 373v1114h473v-1110q0 -400 -622 -400q-114 2 -207.5 30.5t-151 73.5t-88 100t-30.5 112q0 84 63.5 150.5t183.5 91.5l183 -166q-53 -17 -84 -58t-31 -86q0 -44 30.5 -72t90.5 -28q190 0 190 248z" />
<glyph unicode="K" horiz-adv-x="1409" d="M805 0l-246 752v-752h-475v1487h475v-531l535 531h211l-373 -371l414 -1116h-541z" />
<glyph unicode="L" horiz-adv-x="1064" d="M84 0v1487h475v-1340h494v-147h-969z" />
<glyph unicode="M" horiz-adv-x="1564" d="M84 1487h408l290 -547l310 547h389v-1487h-475v1090l-390 -707l-383 700v-1083h-149v1487z" />
<glyph unicode="N" horiz-adv-x="1339" d="M1057 0l-821 823v-823h-152v1487h211l807 -803v803h149v-1487h-194z" />
<glyph unicode="O" horiz-adv-x="1560" d="M770 1360q-250 0 -250 -283v-704q0 -248 258 -248q250 0 250 287v704q0 244 -258 244zM27 741q0 162 59 305t160 244.5t239.5 160t292.5 58.5t293.5 -58.5t241 -160t161.5 -244.5t60 -305q0 -215 -102 -390.5t-274.5 -274t-379.5 -101.5q-154 0 -292.5 58t-239.5 158.5 t-160 243.5t-59 306z" />
<glyph unicode="P" horiz-adv-x="1355" d="M635 1337h-76v-753h76q217 0 217 377q0 376 -217 376zM635 438h-76v-438h-475v1487h485q162 0 274 -12.5t208.5 -45.5t153 -91.5t87.5 -151t31 -223.5q0 -111 -18 -193t-57.5 -140.5t-92.5 -95.5t-134.5 -58.5t-171.5 -29.5t-214 -8z" />
<glyph unicode="Q" horiz-adv-x="1609" d="M786 1360q-249 0 -249 -283v-704q0 -248 258 -248q249 0 249 287v704q0 244 -258 244zM43 741q0 216 101 392.5t273 276t378 99.5q154 0 293 -58.5t240 -160t160.5 -244.5t59.5 -305q0 -168 -57.5 -311.5t-174.5 -251t-282 -158.5q95 -65 197 -65q98 0 223 51l-143 -235 q-46 -4 -62 -4q-229 0 -372 217q-62 -4 -91 -4q-155 0 -292.5 58t-236.5 158t-156.5 242t-57.5 303z" />
<glyph unicode="R" horiz-adv-x="1349" d="M96 0v1487h484q114 0 201.5 -6t168.5 -21t139 -40.5t106.5 -65.5t77.5 -95t44.5 -128.5t15.5 -167.5q0 -309 -149 -416q-151 -109 -281 -109q-2 -4 -2 -24q0 -78 72.5 -135.5t195.5 -57.5q99 0 205 33l-162 -322q-142 16 -245 56t-170 106.5t-107.5 148t-68.5 195.5h-52 v-438h-473zM569 584h76q217 0 217 377q0 376 -217 376h-76v-753z" />
<glyph unicode="S" horiz-adv-x="1366" d="M1165 1235l-161 -90q-65 108 -154.5 157.5t-210.5 49.5q-93 0 -139.5 -31t-46.5 -78q0 -33 30 -61.5t105 -61.5q83 -37 264 -94q231 -73 348 -221q111 -139 111 -336q0 -121 -51 -218.5t-135.5 -158.5t-189 -93t-216.5 -32q-83 0 -168 13t-169 43.5t-148.5 75t-105 112.5 t-40.5 151q0 93 55 209l279 -108q-90 -44 -90 -119q0 -98 109.5 -166.5t263.5 -68.5q125 0 210.5 47t85.5 135q0 47 -27.5 85.5t-99.5 82.5q-130 79 -376 139q-206 52 -310 162q-108 114 -108 289q0 80 33.5 160t93.5 143q49 52 110.5 84t137.5 45t129.5 16.5t136.5 3.5h74 q87 0 209 58z" />
<glyph unicode="T" horiz-adv-x="1146" d="M16 1331v156h1114v-156h-313v-1331h-473v1331h-328z" />
<glyph unicode="U" horiz-adv-x="1402" d="M702 -23q-622 0 -622 400v1110h475v-1063q0 -299 307 -299q309 0 309 299v1063h152v-1075q0 -435 -621 -435z" />
<glyph unicode="V" horiz-adv-x="1378" d="M856 467l346 1020h162l-520 -1487h-318l-510 1487h506z" />
<glyph unicode="W" horiz-adv-x="1724" d="M1327 631l221 856h160l-395 -1487h-318l-133 561l-141 -561h-320l-385 1487h506l211 -856l221 856h162z" />
<glyph unicode="X" horiz-adv-x="1437" d="M883 0l-293 543l-348 -543h-170l436 686l-436 801h510l252 -486l317 486h176l-407 -643l450 -844h-487z" />
<glyph unicode="Y" horiz-adv-x="1277" d="M793 893l292 594h177l-398 -813v-674h-473v666l-375 821h551z" />
<glyph unicode="Z" horiz-adv-x="1183" d="M94 1331v156h1022v-252l-471 -1088h473v-147h-1063l559 1331h-520z" />
<glyph unicode="[" horiz-adv-x="661" d="M186 -125v1737h435v-156h-238v-1433h238v-148h-435z" />
<glyph unicode="\" horiz-adv-x="772" d="M621 -141l-615 1769h144l614 -1769h-143z" />
<glyph unicode="]" horiz-adv-x="661" d="M473 1612v-1737h-432v158h240v1431h-240v148h432z" />
<glyph unicode="^" horiz-adv-x="927" d="M422 1487h88l367 -907h-177l-235 637l-238 -637h-176z" />
<glyph unicode="_" horiz-adv-x="1433" d="M-4 -174v154h1446v-154h-1446z" />
<glyph unicode="`" horiz-adv-x="540" d="M461 1640l-443 148l101 135l405 -205z" />
<glyph unicode="a" d="M774 1100h369v-1100h-369v57q-88 -82 -190 -82q-112 0 -212.5 40.5t-177.5 113.5t-122 185t-45 247q0 148 74 277t194 203.5t252 74.5q124 0 227 -84v68zM592 1008q-193 0 -193 -183v-528q0 -211 185 -211q172 15 190 162v588q-15 172 -182 172z" />
<glyph unicode="b" d="M639 1008q-167 0 -182 -172v-603q21 -147 190 -147q182 0 182 211v528q0 183 -190 183zM88 1538h369v-487q101 67 202 67q145 0 270 -75t200 -207t75 -289q0 -165 -75.5 -297t-202.5 -203.5t-279 -71.5q-108 0 -190 82v-57h-369v1538z" />
<glyph unicode="c" horiz-adv-x="976" d="M858 252l103 -49q-95 -135 -175.5 -181.5t-203.5 -46.5q-151 0 -278 72t-202 200.5t-75 284.5q0 130 42 241t115 186.5t172 118t211 42.5h123q31 0 33 -2q56 0 143 43l119 -237l-119 -66q-103 152 -293 152q-184 0 -184 -207v-535q0 -184 193 -184q175 0 276 168z" />
<glyph unicode="d" d="M774 1538h369v-1538h-369v57q-88 -82 -190 -82q-152 0 -279 71.5t-202.5 203.5t-75.5 297q0 124 46.5 233t121.5 181.5t169.5 114.5t190.5 42q116 0 219 -67v487zM592 1008q-193 0 -193 -183v-528q0 -211 185 -211q169 0 190 147v603q-15 172 -182 172z" />
<glyph unicode="e" horiz-adv-x="1155" d="M578 1008q-185 0 -185 -211v-135h375v163q0 183 -190 183zM1128 528h-735v-260q0 -92 51 -141t150 -49q104 0 192.5 59.5t174.5 188.5l143 -56q-95 -146 -230 -221.5t-270 -75.5q-125 0 -233 44.5t-183.5 120.5t-118 181.5t-42.5 225.5q0 158 70 288.5t198.5 207.5 t288.5 77q116 0 215.5 -41.5t172.5 -116.5t114.5 -186.5t41.5 -245.5z" />
<glyph unicode="f" horiz-adv-x="714" d="M49 989v111h90q2 59 38 124.5t102 129.5t173.5 117.5t239.5 80.5l119 -237l-119 -66l-57 101q-35 59 -74 59t-57.5 -36t-18.5 -120v-153h177v-111h-175v-989h-368v989h-70z" />
<glyph unicode="g" d="M592 94q167 0 182 172v602q-18 146 -196 146q-179 0 -179 -209v-529q0 -182 193 -182zM236 -23l184 -86q-43 -37 -43 -75q0 -56 57.5 -89.5t145.5 -33.5q194 0 194 196v162q-100 -69 -205 -69q-102 0 -191 33t-152.5 89.5t-109 129.5t-67.5 153.5t-22 161.5q0 148 68 280 t192.5 214.5t275.5 82.5q123 0 211 -82v58h369v-1096q0 -116 -42.5 -202t-116.5 -134.5t-162 -71t-191 -22.5q-96 0 -180.5 12.5t-156 38t-113.5 71.5t-42 107q0 108 97 172z" />
<glyph unicode="h" horiz-adv-x="1146" d="M723 0v860q0 148 -127 148q-124 0 -139 -138v-870h-369v1487h369v-436q113 73 278 73q75 0 136.5 -18.5t114 -60t81.5 -119.5t29 -187v-739h-373z" />
<glyph unicode="i" horiz-adv-x="544" d="M88 1538h369v-303h-369v303zM457 0h-369v1100h369v-1100z" />
<glyph unicode="j" horiz-adv-x="704" d="M250 1538h368v-303h-368v303zM111 -295q139 0 139 184v1211h368v-1209q0 -294 -479 -294q-164 0 -258 71.5t-94 161.5q0 63 46.5 111.5t135.5 66.5l135 -123q-40 -10 -63 -40t-23 -64q0 -33 24 -54.5t69 -21.5z" />
<glyph unicode="k" horiz-adv-x="1026" d="M637 0l-180 555v-555h-369v1538h369v-831l395 391h154l-275 -275l305 -823h-399z" />
<glyph unicode="l" horiz-adv-x="544" d="M88 0v1538h369v-1538h-369z" />
<glyph unicode="m" horiz-adv-x="1718" d="M1257 0v860q0 148 -108 148q-107 0 -107 -136v-872h-372v860q0 148 -101 148q-97 0 -112 -138v-870h-369v1100h369v-64q47 47 107 67.5t147 20.5q218 0 270 -141q42 76 106.5 106.5t186.5 30.5q70 0 130.5 -20t112.5 -62.5t82.5 -119t30.5 -179.5v-739h-373z" />
<glyph unicode="n" horiz-adv-x="1183" d="M723 0v860q0 148 -127 148q-124 0 -139 -138v-870h-369v1100h369v-62q110 86 278 86q75 0 136.5 -18.5t114 -60t81.5 -119.5t29 -187v-739h-373z" />
<glyph unicode="o" horiz-adv-x="1169" d="M578 1008q-185 0 -185 -211v-529q0 -182 191 -182q184 0 184 211v528q0 183 -190 183zM27 547q0 124 43.5 231t118 181t177.5 116.5t218 42.5q153 0 280.5 -71.5t203 -203t75.5 -296.5q0 -124 -44.5 -231.5t-120 -181.5t-178 -116.5t-216.5 -42.5q-116 0 -218.5 42.5 t-177 116.5t-118 181.5t-43.5 231.5z" />
<glyph unicode="p" d="M457 -403h-369v1503h369v-43q88 67 190 67q152 0 279 -70.5t202.5 -202t75.5 -298.5q0 -122 -46 -230.5t-120.5 -182t-170.5 -116t-195 -42.5q-118 0 -215 67v-452zM639 92q190 0 190 182v529q0 211 -182 211q-169 0 -190 -148v-602q15 -172 182 -172z" />
<glyph unicode="q" d="M1143 -401h-369v452q-100 -69 -205 -69q-109 0 -209 44.5t-173 120t-116.5 182.5t-43.5 226q0 166 75.5 297.5t202.5 202.5t279 71q102 0 190 -67v43h369v-1503zM592 94q167 0 182 172v602q-18 146 -190 146q-185 0 -185 -209v-529q0 -182 193 -182z" />
<glyph unicode="r" horiz-adv-x="788" d="M788 1063l-114 -189q-35 93 -99 93q-59 0 -88.5 -50.5t-29.5 -125.5v-791h-369v1100h369v-107q62 127 188 127q86 0 143 -57z" />
<glyph unicode="s" horiz-adv-x="987" d="M854 918l-121 -66q-52 83 -117.5 117.5t-156.5 34.5q-64 0 -98.5 -22.5t-34.5 -59.5q0 -54 94 -97q45 -20 198 -67q193 -59 279 -187q66 -97 66 -235q0 -73 -26 -135t-69.5 -104.5t-100.5 -72t-119.5 -43.5t-127.5 -14q-83 0 -164 18t-149 52t-110 89.5t-42 123.5 q0 66 54 139l157 -41q-35 -41 -35 -88q0 -84 84.5 -136t202.5 -52q91 0 151 35t60 98q0 72 -84 127q-79 53 -274 100q-160 38 -240 121q-84 90 -84 225q0 67 32.5 134.5t86.5 113.5q46 39 111 60.5t112 25.5t111 4h94q36 0 139 41z" />
<glyph unicode="t" horiz-adv-x="774" d="M489 989v-786q0 -65 22 -90t64 -25q28 0 45 16.5t17 38.5t-23 45l166 64v-31q0 -70 -21 -117.5t-63 -72t-92 -34t-121 -9.5q-89 0 -152 16t-111.5 55.5t-72.5 110t-24 174.5v645h-105v111h105v155q109 0 196 84.5t87 198.5h83v-438h181v-111h-181z" />
<glyph unicode="u" horiz-adv-x="1183" d="M463 1100v-860q0 -148 123 -148q126 0 141 137v871h369v-1100h-369v49q-111 -76 -289 -76q-74 0 -134 19t-110 61t-78 120t-28 187v740h375z" />
<glyph unicode="v" horiz-adv-x="995" d="M621 344l256 756h118l-383 -1100h-237l-375 1100h373z" />
<glyph unicode="w" horiz-adv-x="1249" d="M969 467l161 633h119l-291 -1100h-233l-100 414l-105 -414h-235l-285 1100h373l155 -633l164 633h123z" />
<glyph unicode="x" horiz-adv-x="960" d="M602 0l-219 399l-256 -399h-127l324 506l-324 594h377l186 -361l238 361h131l-305 -475l334 -625h-359z" />
<glyph unicode="y" horiz-adv-x="995" d="M621 344l256 756h118l-465 -1342q-30 -84 -89 -125t-136 -41q-100 0 -160.5 52.5t-60.5 144.5q0 106 84 184l158 -120q-30 -6 -45 -27.5t-15 -50.5q0 -70 66 -70q25 0 48 17.5t34 52.5l75 225h-114l-375 1100h373z" />
<glyph unicode="z" horiz-adv-x="874" d="M72 985v115h757v-189l-350 -802h350v-109h-784l412 985h-385z" />
<glyph unicode="{" horiz-adv-x="858" d="M801 1653v-148q-209 0 -209 -340v-215l-219 -221l219 -219v-229q0 -297 211 -297l-2 -150q-151 0 -250.5 24t-155.5 76.5t-78 123t-22 175.5v279l-219 223l219 215v269q0 91 13.5 157t47.5 120.5t91.5 87.5t145 51t208.5 18z" />
<glyph unicode="|" horiz-adv-x="518" d="M172 -406v1962h172v-1962h-172z" />
<glyph unicode="}" horiz-adv-x="831" d="M43 -168v148q209 0 209 339v213l219 222l-219 221v227q0 297 -211 297l2 152q151 0 250.5 -24.5t155.5 -77t78 -123.5t22 -177v-276l219 -223l-219 -218v-266q0 -91 -13.5 -157t-47.5 -120.5t-91.5 -87.5t-145 -51t-208.5 -18z" />
<glyph unicode="~" horiz-adv-x="1085" d="M59 643v186q60 78 125.5 106t163.5 28q47 0 114 -24t125 -53t128 -53t121 -24q100 0 190 147v-176q-57 -88 -117.5 -121.5t-152.5 -33.5q-51 0 -139.5 36.5t-180.5 72.5t-151 36q-40 0 -85 -22.5t-71 -43.5t-70 -61z" />
<glyph unicode="&#xa1;" horiz-adv-x="512" d="M201 797h110q3 -208 74 -506q47 -202 47 -322q0 -262 -178 -262q-176 0 -176 248q0 133 49 336q74 309 74 506zM424 893h-330v328h330v-328z" />
<glyph unicode="&#xa2;" horiz-adv-x="987" d="M371 1305h307v-170q79 -9 149.5 -50t118.5 -112l-129 -88q-52 102 -192 102q-91 0 -123.5 -44t-32.5 -144v-211q0 -91 32 -127.5t124 -36.5q42 0 101 24t91 74l129 -69q-89 -145 -266 -172v-154h-307v154q-328 34 -328 311v207q0 298 326 336v170z" />
<glyph unicode="&#xa3;" horiz-adv-x="1273" d="M434 182q-60 66 -127 66q-98 0 -98 -55q0 -21 25.5 -44.5t64.5 -23.5q60 0 135 57zM125 659v105h115q-72 135 -72 250q0 48 12 98q22 87 64.5 156.5t90.5 111.5t103 70t101 38.5t86 10.5q41 0 98.5 -2t73.5 -2q46 0 174 55l159 -321l-159 -90q-71 123 -130 176t-120 53 q-54 0 -102 -42.5t-48 -115.5q0 -128 129 -407q11 -26 19 -39h278v-105h-245q22 -93 22 -155q0 -185 -139 -330q106 -41 201 -41t147 39t78 135l141 31q4 -46 4 -57q0 -140 -95 -223t-222 -83q-169 0 -348 129q-175 -114 -269 -114q-107 0 -165 51.5t-58 134.5q0 18 13 44 t37 53t67 46t96 19q99 0 215 -90q17 31 17 67q0 21 -3.5 40t-13.5 43t-18 40t-29 48t-32.5 48.5t-42.5 59.5t-46 65h-184z" />
<glyph unicode="&#xa5;" horiz-adv-x="1431" d="M162 270v152h301v199h-301v151h268l-342 750h551l225 -594l293 594h176l-366 -750h247v-151h-278v-199h278v-152h-278v-235h-473v235h-301z" />
<glyph unicode="&#xa6;" horiz-adv-x="518" d="M344 -406h-172v734h172v-734zM172 1556h172v-737h-172v737z" />
<glyph unicode="&#xa7;" horiz-adv-x="946" d="M664 602q18 34 18 68q0 85 -85.5 152t-186.5 67q-53 0 -84 -28t-31 -70q0 -34 17.5 -60.5t43 -42.5t67.5 -30t76 -21l85 -17.5t80 -17.5zM809 1321l-109 -57q-42 71 -102 103t-147 32q-59 0 -88 -22t-29 -54t55 -62t209 -81q305 -99 305 -363q0 -86 -38.5 -154.5 t-110.5 -111.5q56 -25 88 -78t32 -125q0 -96 -34 -169.5t-94 -117.5t-136 -66t-166 -22q-91 0 -179 28t-151 87t-63 135q0 61 49 125l142 -37q-33 -29 -33 -75q0 -72 75 -121t185 -49q87 0 136.5 31.5t49.5 88.5q0 129 -319 203q-291 68 -291 291q0 60 20 110t46.5 80 t63.5 53t62 32.5t50 15.5q-205 99 -205 233q0 40 18 86q35 87 90 134t120 59t129.5 13t137.5 8t123 32z" />
<glyph unicode="&#xa8;" horiz-adv-x="741" d="M45 1888h229v-231h-229v231zM477 1888h230v-231h-230v231z" />
<glyph unicode="&#xa9;" horiz-adv-x="1615" d="M39 739q0 212 104.5 391t283 282.5t388.5 103.5q159 0 302.5 -61t247 -165t164 -248t60.5 -303q0 -158 -60.5 -301t-164 -247t-247 -165t-302.5 -61q-157 0 -300.5 61t-247.5 165t-166 247t-62 301zM119 739q0 -142 55 -270.5t148 -221.5t222 -147.5t271 -54.5t271 54.5 t222 147.5t148 221.5t55 270.5q0 190 -93 350.5t-253 253.5t-350 93t-350 -93t-253 -253.5t-93 -350.5zM1069 494l88 -41q-79 -114 -147.5 -152.5t-171.5 -38.5q-191 0 -328 133.5t-137 333.5q0 147 62.5 261t164.5 173.5t225 59.5h131q41 0 119 34l101 -200l-101 -56 q-83 129 -246 129q-153 0 -153 -174v-448q0 -75 40.5 -114.5t121.5 -39.5q147 0 231 140z" />
<glyph unicode="&#xaa;" horiz-adv-x="798" d="M502 1483h227v-678h-227v35q-55 -49 -117 -49q-144 0 -244 98t-100 262q0 138 97.5 240t223.5 102q81 0 140 -51v41zM389 1427q-119 0 -119 -112v-328q0 -129 115 -129q108 9 117 100v363q-9 106 -113 106zM51 520v150h701v-150h-701z" />
<glyph unicode="&#xab;" horiz-adv-x="749" d="M41 586v90l354 489v-276l-190 -258l190 -258v-277zM354 586v90l355 489v-276l-191 -258l191 -258v-277z" />
<glyph unicode="&#xac;" horiz-adv-x="884" d="M72 616v72h733v-307h-129v235h-604z" />
<glyph unicode="&#xad;" horiz-adv-x="870" d="M84 686v150h700v-150h-700z" />
<glyph unicode="&#xae;" horiz-adv-x="1019" d="M41 1026q0 125 62.5 233.5t171.5 173t237 64.5q127 0 235.5 -64.5t172 -173t63.5 -233.5q0 -129 -63.5 -237.5t-172 -171t-235.5 -62.5q-196 0 -333.5 137.5t-137.5 333.5zM115 1026q0 -164 115.5 -279.5t281.5 -115.5q164 0 280.5 115.5t116.5 279.5q0 163 -116.5 279 t-280.5 116q-165 0 -281 -116t-116 -279zM309 797v506h166q141 0 199.5 -36.5t58.5 -142.5q0 -50 -14.5 -87t-37.5 -55.5t-46.5 -27t-48.5 -8.5q0 -32 22 -53t68 -21q32 0 69 11l-55 -109q-92 10 -136.5 51.5t-64.5 120.5h-16v-149h-164zM473 995h25q73 0 73 129 q0 127 -73 127h-25v-256z" />
<glyph unicode="&#xaf;" horiz-adv-x="647" d="M53 1642v101h541v-101h-541z" />
<glyph unicode="&#xb0;" horiz-adv-x="745" d="M702 1202q0 -118 -95.5 -200t-233.5 -82t-234 82t-96 200t96.5 201.5t233.5 83.5t233 -83.5t96 -201.5zM240 1208q0 -72 38.5 -121t94.5 -49t94.5 49t38.5 121q0 69 -39 119.5t-94 50.5t-94 -50.5t-39 -119.5z" />
<glyph unicode="&#xb1;" horiz-adv-x="972" d="M412 1212h149v-376h379v-150h-379v-381h-149v381h-379v150h379v376zM33 150h907v-150h-907v150z" />
<glyph unicode="&#xb2;" horiz-adv-x="745" d="M195 1341l-86 48l86 167q53 -24 86 -24q19 0 56 5t56 5q47 0 86.5 -8t80 -29t64 -65t23.5 -107q0 -109 -67 -177.5t-215 -104.5q-85 -22 -122.5 -48.5t-37.5 -66.5h452v-197h-594q0 71 23 174q22 97 74.5 153.5t154.5 113.5q134 73 134 178q0 42 -28 69t-73 27 q-83 0 -153 -113z" />
<glyph unicode="&#xb3;" horiz-adv-x="686" d="M111 989l120 -51q-20 -26 -20 -57q0 -36 25 -57t63 -21q62 0 85.5 31.5t23.5 105.5q0 109 -46 153t-126 44v65q81 0 122 31.5t41 105.5q0 52 -23.5 85.5t-74.5 33.5q-69 0 -123 -108l-82 47l82 162q47 -20 77.5 -25.5t72.5 -5.5h24q238 0 238 -195q0 -60 -30 -104.5 t-81 -61.5q154 -57 154 -219q0 -110 -73.5 -162.5t-235.5 -52.5q-106 0 -174 43t-68 115q0 38 29 98z" />
<glyph unicode="&#xb4;" horiz-adv-x="540" d="M520 1792l-440 -147l-64 77l398 203z" />
<glyph unicode="&#xb6;" horiz-adv-x="856" d="M240 0v1104q-99 0 -147 45.5t-48 142.5q0 195 195 195h610l-70 -144v-1343h-184v1100h-172v-1100h-184z" />
<glyph unicode="&#xb7;" horiz-adv-x="503" d="M84 907h330v-327h-330v327z" />
<glyph unicode="&#xb8;" horiz-adv-x="462" d="M51 -86h350v-182q0 -65 -49 -137.5t-98 -88.5l-78 60q41 18 73.5 53t39.5 74h-238v221z" />
<glyph unicode="&#xb9;" horiz-adv-x="450" d="M41 1409v80h336v-764h-246v684h-90z" />
<glyph unicode="&#xba;" horiz-adv-x="798" d="M381 1427q-115 0 -115 -131v-325q0 -113 119 -113q113 0 113 129v328q0 112 -117 112zM41 1143q0 154 99 253t245 99q144 0 244 -99t100 -253t-100 -253t-244 -99q-147 0 -245.5 98.5t-98.5 253.5zM51 520v150h701v-150h-701z" />
<glyph unicode="&#xbb;" horiz-adv-x="749" d="M395 676v-90l-354 -490v277l190 258l-190 258v276zM709 676v-90l-355 -490v277l191 258l-191 258v276z" />
<glyph unicode="&#xbc;" horiz-adv-x="1652" d="M1477 1487l-1203 -1487h-202l1177 1487h228zM45 1405v82h342v-778h-248v696h-94zM1268 563l-244 -373h244v373zM946 113v102l369 565h203v-590h71v-77h-71v-113h-250v113h-322z" />
<glyph unicode="&#xbd;" horiz-adv-x="1847" d="M1585 1487l-1202 -1487h-246l1202 1487h246zM1196 596l-82 47l82 166q48 -25 84 -25q19 0 23 2l106 7q31 0 59 -4t62 -17t59 -34.5t41.5 -60t16.5 -89.5q0 -55 -19 -99.5t-49.5 -72.5t-70 -51t-81 -36.5t-81 -28.5t-70 -27.5t-49.5 -32.5t-19 -45h447v-195h-586v12 q0 161 60 255.5t188 168.5q131 76 131 176q0 39 -27 67t-69 28q-85 0 -156 -111zM168 1405v82h344v-785h-250v703h-94z" />
<glyph unicode="&#xbe;" horiz-adv-x="1849" d="M1686 1487l-1201 -1487h-245l1200 1487h246zM1120 113v102l367 561h203v-586h69v-77h-69v-113h-248v113h-322zM115 954l127 -53q-19 -32 -19 -61q0 -36 26 -60t68 -24q62 0 87.5 34t25.5 111q0 117 -48.5 163t-133.5 46v72q88 0 131 34.5t43 112.5q0 53 -25 89t-78 36 q-74 0 -133 -115l-88 47l88 175q62 -33 113 -33h31q53 0 92 -4t79 -17t65 -35.5t41 -61.5t16 -93q0 -61 -32.5 -109t-84.5 -65q84 -29 124 -90.5t40 -143.5q0 -119 -77 -173t-253 -54q-113 0 -185.5 45t-72.5 123q0 48 33 104zM1442 557l-244 -367h244v367z" />
<glyph unicode="&#xbf;" horiz-adv-x="1173" d="M791 106l268 101q59 -109 59 -195q0 -138 -132 -225.5t-322 -87.5q-564 0 -564 375q0 93 38 184.5t122.5 173t202.5 123.5q210 76 225 223l119 2q18 -37 18 -80q0 -107 -110 -217q-207 -207 -207 -444q0 -98 46.5 -149.5t133.5 -51.5q58 0 107 41t49 105q0 57 -53 122z M909 893h-329v328h329v-328z" />
<glyph unicode="&#xc0;" horiz-adv-x="1378" d="M700 442l-178 578l-192 -578h370zM16 0l519 1487h319l510 -1487h-508l-104 295h-473l-103 -295h-160zM676 1640l-443 148l101 135l405 -205z" />
<glyph unicode="&#xc1;" horiz-adv-x="1378" d="M700 442l-178 578l-192 -578h370zM16 0l519 1487h319l510 -1487h-508l-104 295h-473l-103 -295h-160zM963 1792l-441 -147l-63 77l397 203z" />
<glyph unicode="&#xc2;" horiz-adv-x="1378" d="M700 442l-178 578l-192 -578h370zM16 0l519 1487h319l510 -1487h-508l-104 295h-473l-103 -295h-160zM870 1642l-213 99l-215 -99l-69 80l284 217l283 -217z" />
<glyph unicode="&#xc3;" horiz-adv-x="1378" d="M700 442l-178 578l-192 -578h370zM16 0l519 1487h319l510 -1487h-508l-104 295h-473l-103 -295h-160zM358 1667v115q102 108 217 108q46 0 139 -34.5t126 -34.5q77 0 118 65v-108q-94 -123 -206 -123q-38 0 -128 32.5t-126 32.5q-81 0 -140 -53z" />
<glyph unicode="&#xc4;" horiz-adv-x="1378" d="M700 442l-178 578l-192 -578h370zM16 0l519 1487h319l510 -1487h-508l-104 295h-473l-103 -295h-160zM334 1888h229v-231h-229v231zM766 1888h229v-231h-229v231z" />
<glyph unicode="&#xc5;" horiz-adv-x="1378" d="M700 442l-178 578l-192 -578h370zM16 0l519 1487h319l510 -1487h-508l-104 295h-473l-103 -295h-160zM606 1810q0 -51 26.5 -84.5t65.5 -33.5t66 34t27 84q0 53 -27 88t-66 35t-65.5 -35t-26.5 -88zM451 1810q0 63 72 105.5t177 42.5q100 0 174 -43t74 -105 q0 -63 -72 -105t-176 -42q-105 0 -177 42t-72 105z" />
<glyph unicode="&#xc6;" horiz-adv-x="1617" d="M678 1335h-68l-303 -893h371v893zM512 1487h1012l37 -150h-406v-141h408l-52 -188l-92 36h-264v-897h381v-147h-856v295h-426l-100 -295h-160z" />
<glyph unicode="&#xc7;" horiz-adv-x="1363" d="M1157 350l141 -63q-124 -181 -237.5 -246.5t-282.5 -65.5q-154 0 -292.5 58t-239.5 158.5t-160 243.5t-59 306q0 154 59.5 296t159 245t234.5 165t280 62h213q64 0 194 56l160 -322l-160 -90q-139 207 -397 207q-250 0 -250 -283v-704q0 -248 258 -248q238 0 379 225z M614 -86h351v-182q0 -65 -49.5 -137.5t-98.5 -88.5l-78 60q41 18 73.5 53t39.5 74h-238v221z" />
<glyph unicode="&#xc8;" horiz-adv-x="1118" d="M1044 0h-960v1487h950l35 -150h-510v-141h512l-49 -188l-94 36h-369v-897h485v-147zM705 1640l-443 148l100 135l406 -205z" />
<glyph unicode="&#xc9;" horiz-adv-x="1118" d="M1044 0h-960v1487h950l35 -150h-510v-141h512l-49 -188l-94 36h-369v-897h485v-147zM868 1792l-440 -147l-63 77l397 203z" />
<glyph unicode="&#xca;" horiz-adv-x="1118" d="M1044 0h-960v1487h950l35 -150h-510v-141h512l-49 -188l-94 36h-369v-897h485v-147zM809 1642l-213 99l-215 -99l-70 80l285 217l283 -217z" />
<glyph unicode="&#xcb;" horiz-adv-x="1118" d="M1044 0h-960v1487h950l35 -150h-510v-141h512l-49 -188l-94 36h-369v-897h485v-147zM287 1888h229v-231h-229v231zM719 1888h229v-231h-229v231z" />
<glyph unicode="&#xcc;" horiz-adv-x="647" d="M84 0v1487h475v-1487h-475zM461 1640l-443 148l101 135l405 -205z" />
<glyph unicode="&#xcd;" horiz-adv-x="647" d="M84 0v1487h475v-1487h-475zM592 1792l-440 -147l-64 77l397 203z" />
<glyph unicode="&#xce;" horiz-adv-x="647" d="M84 0v1487h475v-1487h-475zM528 1642l-213 99l-215 -99l-69 80l284 217l283 -217z" />
<glyph unicode="&#xcf;" horiz-adv-x="647" d="M84 0v1487h475v-1487h-475zM0 1888h229v-231h-229v231zM432 1888h230v-231h-230v231z" />
<glyph unicode="&#xd0;" horiz-adv-x="1402" d="M2 686v150h82v651h512q764 0 764 -744q0 -743 -737 -743h-539v686h-82zM530 1329v-493h224v-150h-224v-547h58q295 0 295 596q0 594 -295 594h-58z" />
<glyph unicode="&#xd1;" horiz-adv-x="1339" d="M1057 0l-821 823v-823h-152v1487h211l807 -803v803h149v-1487h-194zM356 1667v115q102 108 217 108q46 0 139 -34.5t126 -34.5q77 0 118 65v-108q-94 -123 -206 -123q-38 0 -128 32.5t-126 32.5q-81 0 -140 -53z" />
<glyph unicode="&#xd2;" horiz-adv-x="1560" d="M770 1360q-250 0 -250 -283v-704q0 -248 258 -248q250 0 250 287v704q0 244 -258 244zM27 741q0 162 59 305t160 244.5t239.5 160t292.5 58.5t293.5 -58.5t241 -160t161.5 -244.5t60 -305q0 -215 -102 -390.5t-274.5 -274t-379.5 -101.5q-154 0 -292.5 58t-239.5 158.5 t-160 243.5t-59 306zM885 1640l-443 148l101 135l405 -205z" />
<glyph unicode="&#xd3;" horiz-adv-x="1560" d="M770 1360q-250 0 -250 -283v-704q0 -248 258 -248q250 0 250 287v704q0 244 -258 244zM27 741q0 162 59 305t160 244.5t239.5 160t292.5 58.5t293.5 -58.5t241 -160t161.5 -244.5t60 -305q0 -215 -102 -390.5t-274.5 -274t-379.5 -101.5q-154 0 -292.5 58t-239.5 158.5 t-160 243.5t-59 306zM995 1792l-440 -147l-63 77l397 203z" />
<glyph unicode="&#xd4;" horiz-adv-x="1560" d="M770 1360q-250 0 -250 -283v-704q0 -248 258 -248q250 0 250 287v704q0 244 -258 244zM27 741q0 162 59 305t160 244.5t239.5 160t292.5 58.5t293.5 -58.5t241 -160t161.5 -244.5t60 -305q0 -215 -102 -390.5t-274.5 -274t-379.5 -101.5q-154 0 -292.5 58t-239.5 158.5 t-160 243.5t-59 306zM1001 1642l-213 99l-215 -99l-69 80l284 217l283 -217z" />
<glyph unicode="&#xd5;" horiz-adv-x="1560" d="M770 1360q-250 0 -250 -283v-704q0 -248 258 -248q250 0 250 287v704q0 244 -258 244zM27 741q0 162 59 305t160 244.5t239.5 160t292.5 58.5t293.5 -58.5t241 -160t161.5 -244.5t60 -305q0 -215 -102 -390.5t-274.5 -274t-379.5 -101.5q-154 0 -292.5 58t-239.5 158.5 t-160 243.5t-59 306zM483 1667v115q102 108 217 108q46 0 139 -34.5t126 -34.5q77 0 118 65v-108q-94 -123 -206 -123q-39 0 -129 32.5t-125 32.5q-81 0 -140 -53z" />
<glyph unicode="&#xd6;" horiz-adv-x="1560" d="M770 1360q-250 0 -250 -283v-704q0 -248 258 -248q250 0 250 287v704q0 244 -258 244zM27 741q0 162 59 305t160 244.5t239.5 160t292.5 58.5t293.5 -58.5t241 -160t161.5 -244.5t60 -305q0 -215 -102 -390.5t-274.5 -274t-379.5 -101.5q-154 0 -292.5 58t-239.5 158.5 t-160 243.5t-59 306zM453 1888h229v-231h-229v231zM885 1888h229v-231h-229v231z" />
<glyph unicode="&#xd7;" horiz-adv-x="972" d="M756 1130l104 -104l-266 -266l268 -268l-106 -107l-269 268l-268 -268l-106 104l270 271l-268 268l106 105l266 -269z" />
<glyph unicode="&#xd8;" horiz-adv-x="1560" d="M616 -6l-63 -187l-131 52l61 174q-206 88 -331 276t-125 432q0 162 59 305t160 244.5t239.5 160t292.5 58.5q96 0 211 -28l70 194l121 -47l-68 -196q193 -96 307.5 -278t114.5 -413q0 -163 -60 -305.5t-162 -242t-240.5 -158t-293.5 -60.5q-93 0 -162 19zM770 1360 q-250 0 -250 -283v-704q0 -94 33 -144l381 1092q-56 39 -164 39zM778 125q250 0 250 287v704q0 14 -4 60l-358 -1037q41 -14 112 -14z" />
<glyph unicode="&#xd9;" horiz-adv-x="1402" d="M702 -23q-622 0 -622 400v1110h475v-1063q0 -299 307 -299q309 0 309 299v1063h152v-1075q0 -435 -621 -435zM911 1640l-442 148l100 135l406 -205z" />
<glyph unicode="&#xda;" horiz-adv-x="1402" d="M702 -23q-622 0 -622 400v1110h475v-1063q0 -299 307 -299q309 0 309 299v1063h152v-1075q0 -435 -621 -435zM987 1792l-440 -147l-64 77l398 203z" />
<glyph unicode="&#xdb;" horiz-adv-x="1402" d="M702 -23q-622 0 -622 400v1110h475v-1063q0 -299 307 -299q309 0 309 299v1063h152v-1075q0 -435 -621 -435zM963 1642l-213 99l-215 -99l-70 80l285 217l282 -217z" />
<glyph unicode="&#xdc;" horiz-adv-x="1402" d="M702 -23q-622 0 -622 400v1110h475v-1063q0 -299 307 -299q309 0 309 299v1063h152v-1075q0 -435 -621 -435zM428 1888h229v-231h-229v231zM860 1888h230v-231h-230v231z" />
<glyph unicode="&#xdd;" horiz-adv-x="1277" d="M793 893l292 594h177l-398 -813v-674h-473v666l-375 821h551zM977 1792l-440 -147l-64 77l397 203z" />
<glyph unicode="&#xde;" horiz-adv-x="1355" d="M559 1116v-754h76q217 0 217 377t-217 377h-76zM84 1487h475v-223l10 2q114 0 201.5 -6t169 -21t139.5 -41t106 -65.5t77.5 -95t45 -129t15.5 -167.5q0 -95 -14 -169t-40.5 -129.5t-70.5 -95t-96.5 -65t-127 -40.5t-154.5 -21t-185 -6h-76v-215h-475v1487z" />
<glyph unicode="&#xdf;" horiz-adv-x="1130" d="M86 0v1184q0 105 58.5 188t157.5 127.5t220 44.5q114 0 205 -31t146 -82.5t83.5 -114.5t28.5 -132q0 -183 -149 -275q70 -29 123.5 -79.5t82 -109t42.5 -115.5t14 -111q0 -37 -7.5 -79t-26 -91t-46.5 -94.5t-72.5 -88t-99.5 -74t-132 -50.5t-167 -19v158q86 6 86 114v404 q0 132 -86 141v131q90 3 90 148v151q-6 146 -96 146q-65 0 -86 -78v-1313h-369z" />
<glyph unicode="&#xe0;" d="M774 1100h369v-1100h-369v57q-88 -82 -190 -82q-112 0 -212.5 40.5t-177.5 113.5t-122 185t-45 247q0 148 74 277t194 203.5t252 74.5q124 0 227 -84v68zM592 1008q-193 0 -193 -183v-528q0 -211 185 -211q172 15 190 162v588q-15 172 -182 172zM844 1221l-443 147 l101 135l405 -205z" />
<glyph unicode="&#xe1;" d="M774 1100h369v-1100h-369v57q-88 -82 -190 -82q-112 0 -212.5 40.5t-177.5 113.5t-122 185t-45 247q0 148 74 277t194 203.5t252 74.5q124 0 227 -84v68zM592 1008q-193 0 -193 -183v-528q0 -211 185 -211q172 15 190 162v588q-15 172 -182 172zM985 1372l-440 -147 l-64 78l398 202z" />
<glyph unicode="&#xe2;" d="M774 1100h369v-1100h-369v57q-88 -82 -190 -82q-112 0 -212.5 40.5t-177.5 113.5t-122 185t-45 247q0 148 74 277t194 203.5t252 74.5q124 0 227 -84v68zM592 1008q-193 0 -193 -183v-528q0 -211 185 -211q172 15 190 162v588q-15 172 -182 172zM870 1223l-213 98 l-215 -98l-69 80l284 217l283 -217z" />
<glyph unicode="&#xe3;" d="M774 1100h369v-1100h-369v57q-88 -82 -190 -82q-112 0 -212.5 40.5t-177.5 113.5t-122 185t-45 247q0 148 74 277t194 203.5t252 74.5q124 0 227 -84v68zM592 1008q-193 0 -193 -183v-528q0 -211 185 -211q172 15 190 162v588q-15 172 -182 172zM326 1247v115 q102 108 217 108q46 0 138.5 -34.5t125.5 -34.5q78 0 119 65v-108q-94 -123 -207 -123q-39 0 -128.5 32.5t-125.5 32.5q-80 0 -139 -53z" />
<glyph unicode="&#xe4;" d="M774 1100h369v-1100h-369v57q-88 -82 -190 -82q-112 0 -212.5 40.5t-177.5 113.5t-122 185t-45 247q0 148 74 277t194 203.5t252 74.5q124 0 227 -84v68zM592 1008q-193 0 -193 -183v-528q0 -211 185 -211q172 15 190 162v588q-15 172 -182 172zM313 1468h230v-231h-230 v231zM745 1468h230v-231h-230v231z" />
<glyph unicode="&#xe5;" d="M774 1100h369v-1100h-369v57q-88 -82 -190 -82q-112 0 -212.5 40.5t-177.5 113.5t-122 185t-45 247q0 148 74 277t194 203.5t252 74.5q124 0 227 -84v68zM592 1008q-193 0 -193 -183v-528q0 -211 185 -211q172 15 190 162v588q-15 172 -182 172zM580 1391q0 -51 26.5 -85 t65.5 -34t65.5 34t26.5 85q0 53 -26.5 87.5t-65.5 34.5t-65.5 -34.5t-26.5 -87.5zM424 1391q0 63 72.5 105t177.5 42q100 0 174 -42.5t74 -104.5q0 -63 -72.5 -105.5t-175.5 -42.5q-105 0 -177.5 42.5t-72.5 105.5z" />
<glyph unicode="&#xe6;" horiz-adv-x="1640" d="M989 528v-245q0 -189 187 -189q163 0 301 246l125 -55q-83 -146 -200.5 -221.5t-230.5 -75.5q-86 0 -184 32v-20h-315v57q-76 -67 -166 -67q-130 0 -240 74t-174.5 202t-64.5 281q0 151 64.5 280t172.5 203t232 74q87 0 176 -68v64h315v-62q72 66 168 66 q201 -5 334 -156.5t133 -394.5v-25h-633zM514 993q-166 0 -166 -182v-500q0 -211 158 -211q151 0 166 148v573q-12 172 -158 172zM1147 993q-158 0 -158 -211v-135h324v164q0 182 -166 182z" />
<glyph unicode="&#xe7;" horiz-adv-x="976" d="M858 252l103 -49q-95 -135 -175.5 -181.5t-203.5 -46.5q-151 0 -278 72t-202 200.5t-75 284.5q0 130 42 241t115 186.5t172 118t211 42.5h123q31 0 33 -2q56 0 143 43l119 -237l-119 -66q-103 152 -293 152q-184 0 -184 -207v-535q0 -184 193 -184q175 0 276 168z M393 -86h350v-182q0 -65 -49 -137.5t-98 -88.5l-78 60q41 18 73.5 53t39.5 74h-238v221z" />
<glyph unicode="&#xe8;" horiz-adv-x="1155" d="M578 1008q-185 0 -185 -211v-135h375v163q0 183 -190 183zM1128 528h-735v-260q0 -92 51 -141t150 -49q104 0 192.5 59.5t174.5 188.5l143 -56q-95 -146 -230 -221.5t-270 -75.5q-125 0 -233 44.5t-183.5 120.5t-118 181.5t-42.5 225.5q0 158 70 288.5t198.5 207.5 t288.5 77q116 0 215.5 -41.5t172.5 -116.5t114.5 -186.5t41.5 -245.5zM709 1221l-443 147l101 135l405 -205z" />
<glyph unicode="&#xe9;" horiz-adv-x="1155" d="M578 1008q-185 0 -185 -211v-135h375v163q0 183 -190 183zM1128 528h-735v-260q0 -92 51 -141t150 -49q104 0 192.5 59.5t174.5 188.5l143 -56q-95 -146 -230 -221.5t-270 -75.5q-125 0 -233 44.5t-183.5 120.5t-118 181.5t-42.5 225.5q0 158 70 288.5t198.5 207.5 t288.5 77q116 0 215.5 -41.5t172.5 -116.5t114.5 -186.5t41.5 -245.5zM827 1372l-440 -147l-63 78l397 202z" />
<glyph unicode="&#xea;" horiz-adv-x="1155" d="M578 1008q-185 0 -185 -211v-135h375v163q0 183 -190 183zM1128 528h-735v-260q0 -92 51 -141t150 -49q104 0 192.5 59.5t174.5 188.5l143 -56q-95 -146 -230 -221.5t-270 -75.5q-125 0 -233 44.5t-183.5 120.5t-118 181.5t-42.5 225.5q0 158 70 288.5t198.5 207.5 t288.5 77q116 0 215.5 -41.5t172.5 -116.5t114.5 -186.5t41.5 -245.5zM793 1223l-213 98l-215 -98l-70 80l285 217l282 -217z" />
<glyph unicode="&#xeb;" horiz-adv-x="1155" d="M578 1008q-185 0 -185 -211v-135h375v163q0 183 -190 183zM1128 528h-735v-260q0 -92 51 -141t150 -49q104 0 192.5 59.5t174.5 188.5l143 -56q-95 -146 -230 -221.5t-270 -75.5q-125 0 -233 44.5t-183.5 120.5t-118 181.5t-42.5 225.5q0 158 70 288.5t198.5 207.5 t288.5 77q116 0 215.5 -41.5t172.5 -116.5t114.5 -186.5t41.5 -245.5zM246 1468h229v-231h-229v231zM678 1468h229v-231h-229v231z" />
<glyph unicode="&#xec;" horiz-adv-x="544" d="M457 0h-369v1100h369v-1100zM434 1221l-442 147l100 135l406 -205z" />
<glyph unicode="&#xed;" horiz-adv-x="544" d="M457 0h-369v1100h369v-1100zM565 1372l-440 -147l-64 78l398 202z" />
<glyph unicode="&#xee;" horiz-adv-x="544" d="M457 0h-369v1100h369v-1100zM494 1223l-213 98l-215 -98l-70 80l285 217l282 -217z" />
<glyph unicode="&#xef;" horiz-adv-x="544" d="M457 0h-369v1100h369v-1100zM-55 1468h229v-231h-229v231zM377 1468h229v-231h-229v231z" />
<glyph unicode="&#xf0;" horiz-adv-x="1421" d="M870 922q9 34 9 86q0 66 -15 122.5t-47 103.5t-88.5 74t-132.5 27q-169 0 -301 -196l-160 90l160 321q128 -55 209 -55q2 2 24 2h158q85 0 236 -53q203 -73 313.5 -251.5t110.5 -428.5q0 -102 -7 -183.5t-26.5 -164t-52 -145t-85 -117.5t-124.5 -90.5t-171.5 -55.5 t-224.5 -20q-127 0 -229 29t-170 79t-114 119.5t-66.5 147.5t-20.5 167q0 111 45.5 203t123 152.5t179.5 93.5t215 33q166 0 252 -90zM702 868q-148 0 -151 -139v-412q0 -176 147 -176q148 0 148 176v406q0 145 -144 145z" />
<glyph unicode="&#xf1;" horiz-adv-x="1183" d="M723 0v860q0 148 -127 148q-124 0 -139 -138v-870h-369v1100h369v-62q110 86 278 86q75 0 136.5 -18.5t114 -60t81.5 -119.5t29 -187v-739h-373zM268 1247v115q102 108 217 108q46 0 139 -34.5t126 -34.5q77 0 118 65v-108q-94 -123 -206 -123q-38 0 -128 32.5t-126 32.5 q-81 0 -140 -53z" />
<glyph unicode="&#xf2;" horiz-adv-x="1169" d="M578 1008q-185 0 -185 -211v-529q0 -182 191 -182q184 0 184 211v528q0 183 -190 183zM27 547q0 124 43.5 231t118 181t177.5 116.5t218 42.5q153 0 280.5 -71.5t203 -203t75.5 -296.5q0 -124 -44.5 -231.5t-120 -181.5t-178 -116.5t-216.5 -42.5q-116 0 -218.5 42.5 t-177 116.5t-118 181.5t-43.5 231.5zM702 1221l-442 147l100 135l406 -205z" />
<glyph unicode="&#xf3;" horiz-adv-x="1169" d="M578 1008q-185 0 -185 -211v-529q0 -182 191 -182q184 0 184 211v528q0 183 -190 183zM27 547q0 124 43.5 231t118 181t177.5 116.5t218 42.5q153 0 280.5 -71.5t203 -203t75.5 -296.5q0 -124 -44.5 -231.5t-120 -181.5t-178 -116.5t-216.5 -42.5q-116 0 -218.5 42.5 t-177 116.5t-118 181.5t-43.5 231.5zM858 1372l-440 -147l-64 78l398 202z" />
<glyph unicode="&#xf4;" horiz-adv-x="1169" d="M578 1008q-185 0 -185 -211v-529q0 -182 191 -182q184 0 184 211v528q0 183 -190 183zM27 547q0 124 43.5 231t118 181t177.5 116.5t218 42.5q153 0 280.5 -71.5t203 -203t75.5 -296.5q0 -124 -44.5 -231.5t-120 -181.5t-178 -116.5t-216.5 -42.5q-116 0 -218.5 42.5 t-177 116.5t-118 181.5t-43.5 231.5zM793 1223l-213 98l-215 -98l-70 80l285 217l282 -217z" />
<glyph unicode="&#xf5;" horiz-adv-x="1169" d="M578 1008q-185 0 -185 -211v-529q0 -182 191 -182q184 0 184 211v528q0 183 -190 183zM27 547q0 124 43.5 231t118 181t177.5 116.5t218 42.5q153 0 280.5 -71.5t203 -203t75.5 -296.5q0 -124 -44.5 -231.5t-120 -181.5t-178 -116.5t-216.5 -42.5q-116 0 -218.5 42.5 t-177 116.5t-118 181.5t-43.5 231.5zM281 1247v115q102 108 217 108q46 0 138.5 -34.5t125.5 -34.5q78 0 119 65v-108q-94 -123 -207 -123q-38 0 -128 32.5t-126 32.5q-80 0 -139 -53z" />
<glyph unicode="&#xf6;" horiz-adv-x="1169" d="M578 1008q-185 0 -185 -211v-529q0 -182 191 -182q184 0 184 211v528q0 183 -190 183zM27 547q0 124 43.5 231t118 181t177.5 116.5t218 42.5q153 0 280.5 -71.5t203 -203t75.5 -296.5q0 -124 -44.5 -231.5t-120 -181.5t-178 -116.5t-216.5 -42.5q-116 0 -218.5 42.5 t-177 116.5t-118 181.5t-43.5 231.5zM248 1468h229v-231h-229v231zM680 1468h229v-231h-229v231z" />
<glyph unicode="&#xf7;" horiz-adv-x="972" d="M33 836h907v-150h-907v150zM379 1227h221v-219h-221v219zM379 504h221v-219h-221v219z" />
<glyph unicode="&#xf8;" horiz-adv-x="1169" d="M283 59l-86 -118l-80 59l88 121q-178 175 -178 426q0 124 43.5 231t118 181t177.5 116.5t218 42.5q151 0 299 -86l71 96l70 -63l-66 -90q90 -70 137.5 -187.5t47.5 -240.5q0 -124 -44.5 -231.5t-120 -181.5t-178 -116.5t-216.5 -42.5q-160 0 -301 84zM578 1008 q-185 0 -185 -211v-424l371 497q-21 138 -186 138zM584 86q184 0 184 211v422l-369 -504q21 -129 185 -129z" />
<glyph unicode="&#xf9;" horiz-adv-x="1183" d="M463 1100v-860q0 -148 123 -148q126 0 141 137v871h369v-1100h-369v49q-111 -76 -289 -76q-74 0 -134 19t-110 61t-78 120t-28 187v740h375zM715 1221l-443 147l101 135l405 -205z" />
<glyph unicode="&#xfa;" horiz-adv-x="1183" d="M463 1100v-860q0 -148 123 -148q126 0 141 137v871h369v-1100h-369v49q-111 -76 -289 -76q-74 0 -134 19t-110 61t-78 120t-28 187v740h375zM858 1372l-440 -147l-64 78l398 202z" />
<glyph unicode="&#xfb;" horiz-adv-x="1183" d="M463 1100v-860q0 -148 123 -148q126 0 141 137v871h369v-1100h-369v49q-111 -76 -289 -76q-74 0 -134 19t-110 61t-78 120t-28 187v740h375zM799 1223l-213 98l-215 -98l-70 80l285 217l282 -217z" />
<glyph unicode="&#xfc;" horiz-adv-x="1183" d="M463 1100v-860q0 -148 123 -148q126 0 141 137v871h369v-1100h-369v49q-111 -76 -289 -76q-74 0 -134 19t-110 61t-78 120t-28 187v740h375zM264 1468h230v-231h-230v231zM696 1468h230v-231h-230v231z" />
<glyph unicode="&#xfd;" horiz-adv-x="995" d="M621 344l256 756h118l-465 -1342q-30 -84 -89 -125t-136 -41q-100 0 -160.5 52.5t-60.5 144.5q0 106 84 184l158 -120q-30 -6 -45 -27.5t-15 -50.5q0 -70 66 -70q25 0 48 17.5t34 52.5l75 225h-114l-375 1100h373zM825 1372l-440 -147l-63 78l397 202z" />
<glyph unicode="&#xfe;" d="M639 106q104 0 147 47t43 158v488q0 97 -44.5 145.5t-145.5 48.5q-167 0 -182 -172v-542q15 -173 182 -173zM88 -403v1941h369v-496q89 68 190 68q151 0 278 -73t202 -201.5t75 -282.5q0 -158 -74 -287.5t-201 -202.5t-280 -73q-102 0 -190 67v-460h-369z" />
<glyph unicode="&#xff;" horiz-adv-x="995" d="M621 344l256 756h118l-465 -1342q-30 -84 -89 -125t-136 -41q-100 0 -160.5 52.5t-60.5 144.5q0 106 84 184l158 -120q-30 -6 -45 -27.5t-15 -50.5q0 -70 66 -70q25 0 48 17.5t34 52.5l75 225h-114l-375 1100h373zM223 1468h230v-231h-230v231zM655 1468h230v-231h-230 v231z" />
<glyph unicode="&#x152;" horiz-adv-x="1792" d="M922 412v702q-9 231 -205 246q-197 0 -197 -283v-704q0 -245 197 -248q199 12 205 287zM922 0v31q-139 -74 -275 -74q-90 0 -176 30.5t-163 94t-136 152t-95.5 212.5t-41.5 269q0 374 172.5 581t486.5 207q124 0 228 -49v33h809l34 -150h-393v-141h395l-49 -188l-94 36 h-252v-897h369v-147h-819z" />
<glyph unicode="&#x153;" horiz-adv-x="1677" d="M1004 528v-260q0 -181 174 -190q92 0 169 59.5t150 188.5l125 -56q-77 -144 -198.5 -220.5t-235.5 -76.5q-211 0 -348 150q-145 -148 -330 -148q-207 5 -345 163.5t-138 408.5q0 249 138.5 410t344.5 161q187 0 330 -149q137 149 329 149q203 -5 337 -157t134 -408v-25 h-636zM504 1008q-160 0 -160 -211v-529q0 -182 166 -182q160 0 160 211v528q0 183 -166 183zM1163 1008q-159 0 -159 -211v-135h325v163q0 183 -166 183z" />
<glyph unicode="&#x178;" horiz-adv-x="1277" d="M793 893l292 594h177l-398 -813v-674h-473v666l-375 821h551zM340 1888h229v-231h-229v231zM772 1888h229v-231h-229v231z" />
<glyph unicode="&#x2c6;" horiz-adv-x="628" d="M528 1642l-213 99l-215 -99l-69 80l284 217l283 -217z" />
<glyph unicode="&#x2dc;" horiz-adv-x="612" d="M6 1667v115q102 108 217 108q46 0 138.5 -34.5t125.5 -34.5q78 0 119 65v-108q-95 -123 -207 -123q-39 0 -128.5 32.5t-125.5 32.5q-80 0 -139 -53z" />
<glyph unicode="&#x2000;" horiz-adv-x="979" />
<glyph unicode="&#x2001;" horiz-adv-x="1958" />
<glyph unicode="&#x2002;" horiz-adv-x="979" />
<glyph unicode="&#x2003;" horiz-adv-x="1958" />
<glyph unicode="&#x2004;" horiz-adv-x="652" />
<glyph unicode="&#x2005;" horiz-adv-x="489" />
<glyph unicode="&#x2006;" horiz-adv-x="326" />
<glyph unicode="&#x2007;" horiz-adv-x="326" />
<glyph unicode="&#x2008;" horiz-adv-x="244" />
<glyph unicode="&#x2009;" horiz-adv-x="391" />
<glyph unicode="&#x200a;" horiz-adv-x="108" />
<glyph unicode="&#x2010;" horiz-adv-x="870" d="M84 686v150h700v-150h-700z" />
<glyph unicode="&#x2011;" horiz-adv-x="870" d="M84 686v150h700v-150h-700z" />
<glyph unicode="&#x2012;" horiz-adv-x="870" d="M84 686v150h700v-150h-700z" />
<glyph unicode="&#x2013;" horiz-adv-x="1169" d="M84 686v150h997v-150h-997z" />
<glyph unicode="&#x2014;" horiz-adv-x="1923" d="M84 686v150h1753v-150h-1753z" />
<glyph unicode="&#x2018;" horiz-adv-x="464" d="M403 987h-329v268q0 272 188 375l64 -63q-156 -99 -156 -252h233v-328z" />
<glyph unicode="&#x2019;" horiz-adv-x="550" d="M123 1579h330v-270q0 -271 -189 -375l-63 63q155 102 155 252h-233v330z" />
<glyph unicode="&#x201a;" horiz-adv-x="550" d="M123 365h330v-271q0 -271 -189 -375l-63 64q155 102 155 252h-233v330z" />
<glyph unicode="&#x201c;" horiz-adv-x="864" d="M793 987h-328v268q0 102 26.5 179t65 120.5t94.5 75.5l64 -63q-156 -99 -156 -252h234v-328zM403 987h-329v268q0 272 188 375l64 -63q-156 -99 -156 -252h233v-328z" />
<glyph unicode="&#x201d;" horiz-adv-x="892" d="M485 1577h330v-268q0 -272 -188 -375l-64 63q156 99 156 252h-234v328zM78 1577h330v-268q0 -271 -189 -375l-63 63q155 98 155 252h-233v328z" />
<glyph unicode="&#x201e;" horiz-adv-x="921" d="M496 365h329v-271q0 -272 -188 -375l-64 64q156 102 156 252h-233v330zM123 365h330v-271q0 -271 -189 -375l-63 64q155 102 155 252h-233v330z" />
<glyph unicode="&#x2022;" horiz-adv-x="866" d="M59 678q0 167 108 282t265 115q156 0 265.5 -115t109.5 -282q0 -164 -110 -280.5t-265 -116.5q-156 0 -264.5 116t-108.5 281z" />
<glyph unicode="&#x2026;" horiz-adv-x="1509" d="M84 328h330v-328h-330v328zM588 328h330v-328h-330v328zM1090 328h329v-328h-329v328z" />
<glyph unicode="&#x202f;" horiz-adv-x="391" />
<glyph unicode="&#x2039;" horiz-adv-x="436" d="M41 586v90l354 489v-276l-190 -258l190 -258v-277z" />
<glyph unicode="&#x203a;" horiz-adv-x="436" d="M395 676v-90l-354 -490v277l190 258l-190 258v276z" />
<glyph unicode="&#x205f;" horiz-adv-x="489" />
<glyph unicode="&#x20ac;" horiz-adv-x="1294" d="M16 809l21 152h92v102q0 434 621 434q210 0 434 -35l-54 -190q-157 74 -350 74q-178 0 -178 -283v-102h379l-43 -152h-336v-96h307l-43 -152h-264v-176q0 -248 189 -248q124 0 262 135l168 -127q-141 -153 -471 -153q-621 0 -621 399v170h-113l21 152h92v96h-113z" />
<glyph unicode="&#x2122;" horiz-adv-x="1628" d="M76 1401v86h622v-86h-176v-742h-264v742h-182zM776 659v828h47l281 -338l254 338h192v-828h-262v607l-280 -389l-150 206v-424h-82z" />
<glyph unicode="&#x25fc;" horiz-adv-x="1095" d="M0 1096h1096v-1096h-1096v1096z" />
</font>
</defs>
</svg>
